<?xml version="1.0" standalone="no"?>
<!DOCTYPE svg PUBLIC "-//W3C//DTD SVG 20010904//EN"
 "http://www.w3.org/TR/2001/REC-SVG-20010904/DTD/svg10.dtd">
<svg version="1.0" xmlns="http://www.w3.org/2000/svg"
 width="512.000000pt" height="512.000000pt" viewBox="0 0 512.000000 512.000000"
 preserveAspectRatio="xMidYMid meet">
<metadata>
Created by potrace 1.14, written by Peter Selinger 2001-2017
</metadata>
<g transform="translate(0.000000,512.000000) scale(0.100000,-0.100000)"
fill="#000000" stroke="none">
<path d="M1702 4407 l-282 -282 0 -853 0 -852 -280 0 -280 0 0 351 c0 220 -4
366 -11 394 -13 53 -54 94 -105 106 -22 4 -198 9 -391 9 l-353 0 0 -1387 c0
-1529 -3 -1448 63 -1582 43 -89 159 -205 248 -248 136 -67 -20 -63 2286 -63
1150 0 2093 4 2095 8 2 4 29 18 61 30 172 65 309 221 352 403 12 53 15 155 15
597 l0 532 -215 0 -215 0 0 1015 c0 1139 5 1060 -73 1096 -40 17 -73 19 -562
19 -489 0 -522 -2 -562 -19 -79 -37 -78 -26 -81 -453 l-3 -378 -284 0 -285 0
0 638 0 637 -283 283 -282 282 -145 0 -145 0 -283 -283z m858 -712 l0 -146
-142 3 -143 3 -3 143 -3 142 146 0 145 0 0 -145z m1850 -425 l0 -141 -142 3
-143 3 -3 138 -3 137 146 0 145 0 0 -140z m-1850 -140 l0 -140 -145 0 -145 0
0 140 0 140 145 0 145 0 0 -140z m1848 -427 l3 -143 -146 0 -145 0 0 138 c0
76 3 142 7 146 4 3 68 5 142 4 l136 -3 3 -142z m-2128 -143 l0 -140 -145 0
-145 0 0 140 0 140 145 0 145 0 0 -140z m1418 -137 l-3 -138 -140 0 -140 0 -3
138 -3 137 146 0 146 0 -3 -137z m-2278 -433 l0 -140 -140 0 -140 0 0 140 0
140 140 0 140 0 0 -140z m1990 -140 l0 -140 -140 0 -140 0 0 140 0 140 140 0
140 0 0 -140z m-2272 -432 l3 -138 -146 0 -145 0 0 133 c0 74 3 137 7 141 4 3
68 5 142 4 l136 -3 3 -137z m1987 -423 l0 -140 -137 -3 -138 -3 0 146 0 146
138 -3 137 -3 0 -140z m-1707 -142 l-3 -138 -135 0 -135 0 -3 138 -3 137 141
0 141 0 -3 -137z"/>
</g>
</svg>
